<?xml version="1.0" encoding="utf-8"?>
<!-- Generator: Adobe Illustrator 27.9.0, SVG Export Plug-In . SVG Version: 6.00 Build 0)  -->
<svg version="1.1" id="Layer_1" xmlns="http://www.w3.org/2000/svg" xmlns:xlink="http://www.w3.org/1999/xlink" x="0px" y="0px"
	 width="153.8px" height="121.5px" viewBox="0 0 153.8 121.5" style="enable-background:new 0 0 153.8 121.5;" xml:space="preserve"
	>
<style type="text/css">
	.st0{fill:#0092CC;}
	.st1{fill:#EACF7D;}
	.st2{fill:#FFFFFF;}
</style>
<g>
	<polygon class="st0" points="113.8,88 105.4,37.3 100.4,32.9 97.2,18.7 94.8,19.8 97.5,36.2 101.1,39.5 107.9,87.8 	"/>
	<polygon class="st0" points="59.6,58.8 63.2,73.2 70.4,77 73.8,92.2 69,93 66.9,80.8 58.5,75.4 56.2,65.9 	"/>
	<polygon class="st0" points="72.5,57.1 86,63.7 89.9,89.5 84.5,90.4 81.5,64.8 73,58.9 	"/>
	<polygon points="131.6,90.4 126.2,58 120.8,54.7 115.7,34.7 111.6,32.4 107,17.7 103.9,18.8 99.5,16 95.2,18.5 95.7,20.8 
		99.8,18.5 102.9,21.9 106,20.8 110.3,35.2 114.2,36.5 118.8,57.5 123.2,60.4 127.3,89.4 	"/>
	<polygon points="122.9,89.1 118.8,62.9 116.2,60.9 111.1,38.5 113.7,64.5 116.2,65.5 118.5,87.8 	"/>
	<polygon points="109.6,88.3 102.9,38.5 98.8,34.7 94.2,10.3 85.9,3.9 81.3,6.5 77.7,5.2 73.4,14.2 66.9,17.7 62.3,50.9 60.5,50.1 
		55.9,64.5 57.2,72.7 61.8,53.7 64.4,55.7 68.7,19.3 75.4,15.2 78.8,8.8 81.8,9.3 86.2,6.7 92.4,11.6 97.2,37.5 100.1,40.1 
		105.7,87.8 	"/>
	<polygon points="98.5,88.6 95.2,42.9 92.1,38.5 89.5,13.6 85.9,9.8 87.5,41.1 90.3,44.7 91.6,90.1 	"/>
	<polygon points="88.1,77.7 86.7,46 84.1,42.4 82.9,13.4 80.3,48.5 84.4,52.9 	"/>
	<polygon points="86.5,91 82.7,64.4 72.5,57.1 70,64 67.5,62.7 62.3,77.7 65.3,79.6 68.4,66.3 70.9,67.9 73.4,60.4 80.6,65 
		83.8,90.8 	"/>
	<polygon points="80.2,91.3 77.7,67.5 75.2,65.6 74.8,77.5 73.2,76.3 70.9,91.9 	"/>
	<polygon points="72.3,101.5 68.6,80 60.3,75.6 51.9,39.4 43.2,49.8 42.1,58.6 39,60 27.8,99 33,99.4 41.3,62.5 44.2,60.7 
		45.5,50.7 50.9,44.6 56.9,76.1 65.3,80.8 68.4,101.7 	"/>
	<path d="M62.8,101.7l-3.1-17.9l-2.7-1.5l0.2,10L55,91.9l-0.4-18.3l-5-23.7l-1.3,50C48.2,100,56.1,101.4,62.8,101.7z"/>
	<polygon points="44.6,100 46.9,63 41.9,99 	"/>
	<path d="M143.5,94.9c0,0-7.7-7.8-32.3-8.2c-24.6-0.4-32.7,5.4-43.7,3.7l2.1,3.9c0,0,17.5-2,27.3-3.5
		C106.1,89.4,130.6,87.2,143.5,94.9z"/>
	<path d="M72.1,100.7c-3.9,0-8.1-0.2-12.6-0.9c-18.7-2.9-41.8-4-54.3,4.4c0,0,14.8-5.4,33.5-3.5c11.2,1.2,22.8,3,33.9,2.4
		L72.1,100.7z"/>
	<ellipse transform="matrix(0.7071 -0.7071 0.7071 0.7071 -1.4277 42.6081)" class="st1" cx="50.7" cy="23" rx="9.5" ry="9.5"/>
	<path d="M40.4,23c0,5.7,4.6,10.3,10.3,10.3S61.1,28.7,61.1,23s-4.6-10.3-10.3-10.3S40.4,17.3,40.4,23z M42,23
		c0-4.8,3.9-8.7,8.7-8.7c4.8,0,8.7,3.9,8.7,8.7c0,4.8-3.9,8.7-8.7,8.7C45.9,31.8,42,27.8,42,23z"/>
	<path class="st2" d="M57.8,30.3c0,0-3.5-0.3-5.2-1.2s-3.1-2.7-2.6-5.1c0.5-2.4,3.2-4.2,6.5-3.2c0,0,0.7-1.9,3.5-2.7l3,12.5
		L57.8,30.3z"/>
	<path class="st2" d="M65.9,19.4c0,0,0.8,0.8,1.1,1.5c0,0,1.7-1,4,0l-2.6,9.2c0,0-3.4,0.6-4.5,0.7L65.9,19.4z"/>
	<path class="st0" d="M50.9,25.2c0-2.1,1.7-3.7,3.7-3.7c0.8,0,1.5,0.2,2.1,0.7c0.8-2,2.7-3.4,5-3.4c2.3,0,4.2,1.4,5,3.4
		c0.6-0.5,1.4-0.7,2.2-0.7c2.1,0,3.7,1.7,3.7,3.7c0,2-1.5,3.6-3.5,3.7c-1.2,0.4-7.4,2-15.1,0.1l0-0.1C52.3,28.6,50.9,27.1,50.9,25.2
		z"/>
	<path class="st0" d="M147.5,89.1c-8.3-2.5-17.2-2.6-17.2-2.6l0.4,1.4c19.6,0.8,33,10.2,1.6,8.5c-31.5-1.7-41.9-3.1-51.1-0.5
		c-9.2,2.6-4.3,6.7,18.2,9c22.4,2.2,11.5,6.3-8.4,8.4c-6.8,0.7-19,0.3-32.2-0.5l0,0c-0.1,0-0.3,0-0.4,0c-4.1-0.3-8.3-0.6-12.5-0.9
		c-26.4-1.4-40.2,1-45.8,2.5L0,114.3c0,0,80.7,8.2,110,1.3c25-5.8,4.8-12.3-7.5-13.5c-8.2-0.8-18.8-2-11.3-4.5
		c7.5-2.5,29,1.8,48.1,1.2C158.4,98.2,155.8,91.6,147.5,89.1z"/>
</g>
</svg>
