<?xml version="1.0" encoding="utf-8"?>
<!-- Generator: Adobe Illustrator 27.9.0, SVG Export Plug-In . SVG Version: 6.00 Build 0)  -->
<svg version="1.1" id="Layer_1" xmlns="http://www.w3.org/2000/svg" xmlns:xlink="http://www.w3.org/1999/xlink" x="0px" y="0px"
	 width="162px" height="75.4px" viewBox="0 0 162 75.4" style="enable-background:new 0 0 162 75.4;" xml:space="preserve">
<style type="text/css">
	.st0{fill:#0092CC;}
</style>
<g>
	<path class="st0" d="M149.9,43.2c0,0-34.5,8.7-51.8-27.7l2.2-10.2C100.2,5.4,112.2,46.2,149.9,43.2z"/>
	<path class="st0" d="M114.9,13.9c0,0,9.6,15.2,28.4,16.4c0,0-14.7-2.5-25.9-19.2L114.9,13.9z"/>
	<path d="M162,51.8c0,0-22.5,10.7-56.1,1.6C72.4,44.2,50.6,36.5,11.3,63c0,0,25.5-15.9,50.3-14.4C86.4,50,130.4,69.3,162,51.8z"/>
	<path class="st0" d="M116.6,66.6c0,0-19.4-4.1-30.5-6.8C75.2,57.2,33.5,49.9,0,75.4c0,0,21.4-13.4,51.8-15
		C82.1,58.9,105.2,67.7,116.6,66.6z"/>
	<path d="M150.5,43.2c0,0-36.5,5.7-50.2-43.2L83.6,11.9l-3-2.4l-55,45.5l2.7-1.3l51-39.4l3.4,2.8L98,6.1
		C98,6.1,111.8,49.2,150.5,43.2z"/>
	<path d="M105,17.8l13.3-9.1c0,0,6.2,16.1,24.9,21.6c0,0-13.1,0.1-26-17l-9.8,8L105,17.8z"/>
	<path d="M109.3,24.9l7.5-6.2c0,0,2,4.7,14.2,11.7c0,0-7.1-1.7-14.1-8l-4.9,4.9L109.3,24.9z"/>
	<path d="M139.1,57.7c0,0-26.4-0.3-36.4-30.8c0,0,3.5,24.7,26.5,30.8L139.1,57.7z"/>
	<path d="M117.8,57.6c0,0-26-15.8-17-49.1l-2.4-5.8c0,0-13.1,26.8-13.8,40.1c0,0-12.7,0.5-17.8,4.2l19.6,3.3
		C86.4,50.3,113.7,57.9,117.8,57.6z"/>
	<polygon points="42.5,49.1 78,19.7 48.3,48.3 	"/>
	<polygon points="98.6,5.4 77.3,29.7 94.2,16.2 	"/>
	<path d="M88.5,33.1c0,0-9.5-0.4-22.8,6.8c0,0,15.3-4.4,22.5-3.1L88.5,33.1z"/>
	<path class="st0" d="M46.2,22.1c0-2.3,1.8-4.1,4-4.2c0.9,0,1.7,0.2,2.3,0.7c0.8-2.2,2.9-3.7,5.4-3.7c2.5,0,4.6,1.5,5.5,3.6
		c0.7-0.5,1.5-0.8,2.4-0.8c2.3,0,4.1,1.8,4.2,4c0,2.2-1.6,3.9-3.7,4.1c-1.3,0.4-8,2.3-16.4,0.3l0-0.1C47.8,25.9,46.2,24.2,46.2,22.1
		z"/>
	<path d="M57.9,14.1c-2.4,0-4.5,1.4-5.7,3.5c-0.6-0.3-1.3-0.5-2-0.5c-1.3,0-2.5,0.6-3.5,1.5c-0.9,0.9-1.4,2.2-1.4,3.5l0,0
		c0,2.5,1.9,4.5,4.4,4.8c8.5,2.1,15.5,0.1,16.8-0.3l-0.2,0c2.5-0.2,4.5-2.4,4.5-4.9c0-2.7-2.3-4.9-5-4.8c-0.7,0-1.4,0.2-2.1,0.6
		C62.5,15.4,60.4,14,57.9,14.1z M53.3,18.9c0.7-1.9,2.6-3.2,4.6-3.2c2.1,0,3.9,1.2,4.7,3.1l0.4,1l0.9-0.6c0.6-0.4,1.2-0.7,1.9-0.7
		c1.8,0,3.3,1.4,3.3,3.2c0,1.7-1.2,3.1-3,3.3l-0.1,0L66,25c-1.2,0.4-7.8,2.3-16,0.3l0,0l-0.1-0.1c-1.6-0.2-2.9-1.5-2.9-3.2l0,0
		c0-0.9,0.3-1.7,0.9-2.3c0.6-0.6,1.4-1,2.3-1c0.7,0,1.3,0.2,1.9,0.6l0.9,0.6L53.3,18.9z"/>
	<path class="st0" d="M59.9,8.9c0-1.6,1.3-3,2.9-3c0.6,0,1.2,0.2,1.7,0.5c0.6-1.6,2.1-2.7,3.9-2.7c1.8,0,3.4,1.1,4,2.6
		C73,6,73.6,5.7,74.2,5.7c1.6,0,3,1.3,3,2.9c0,1.6-1.2,2.8-2.7,3c-0.9,0.3-5.8,1.7-11.9,0.3l0-0.1C61.1,11.7,60,10.4,59.9,8.9z"/>
	<path d="M68.5,3.1c-1.8,0-3.3,1-4.1,2.6c-0.5-0.2-1-0.3-1.5-0.3c-1,0-1.8,0.4-2.5,1.1c-0.7,0.7-1,1.6-1,2.5l0,0
		c0,1.8,1.4,3.3,3.2,3.5c6.2,1.5,11.2,0.1,12.2-0.2l-0.1,0c1.8-0.2,3.3-1.8,3.2-3.6c0-2-1.7-3.5-3.6-3.5c-0.5,0-1,0.2-1.5,0.4
		C71.8,4,70.2,3.1,68.5,3.1z M65.1,6.6c0.5-1.4,1.9-2.3,3.4-2.3c1.5,0,2.9,0.9,3.4,2.3l0.3,0.7l0.6-0.5c0.4-0.3,0.9-0.5,1.4-0.5
		c1.3,0,2.4,1,2.4,2.3c0,1.2-0.9,2.3-2.2,2.4l-0.1,0l-0.1,0c-0.9,0.3-5.7,1.6-11.6,0.2l0,0l0-0.1c-1.2-0.1-2.1-1.1-2.1-2.3l0,0
		c0-0.6,0.2-1.2,0.7-1.7c0.4-0.5,1-0.7,1.7-0.7c0.5,0,1,0.1,1.4,0.4l0.6,0.4L65.1,6.6z"/>
</g>
</svg>
