<?xml version="1.0" encoding="utf-8"?>
<!-- Generator: Adobe Illustrator 27.9.0, SVG Export Plug-In . SVG Version: 6.00 Build 0)  -->
<svg version="1.1" id="Layer_1" xmlns="http://www.w3.org/2000/svg" xmlns:xlink="http://www.w3.org/1999/xlink" x="0px" y="0px"
	 width="176.4px" height="79.1px" viewBox="0 0 176.4 79.1" style="enable-background:new 0 0 176.4 79.1;" xml:space="preserve">
<style type="text/css">
	.st0{fill:#0092CC;}
	.st1{fill:#EACF7D;}
	.st2{fill:#007958;}
</style>
<g>
	<g>
		<path class="st0" d="M95.3,10.1c0-2.1,1.6-3.7,3.7-3.8c0.8,0,1.5,0.2,2.1,0.6c0.8-2,2.6-3.4,4.9-3.4c2.3,0,4.2,1.3,5,3.3
			c0.6-0.5,1.4-0.7,2.2-0.8c2.1,0,3.7,1.6,3.8,3.7c0,2-1.5,3.6-3.4,3.7c-1.2,0.4-7.3,2.1-14.9,0.3l0-0.1
			C96.8,13.5,95.3,12,95.3,10.1z"/>
		<path d="M105.9,2.8c-2.2,0-4.1,1.3-5.2,3.2c-0.6-0.3-1.2-0.4-1.8-0.4c-1.2,0-2.3,0.5-3.1,1.4c-0.8,0.9-1.3,2-1.3,3.2l0,0
			c0,2.2,1.7,4.1,4,4.3c7.7,1.9,14.1,0.1,15.2-0.3l-0.2,0c2.3-0.2,4.1-2.2,4.1-4.5c0-2.5-2.1-4.4-4.5-4.4c-0.7,0-1.3,0.2-1.9,0.5
			C110.1,4,108.2,2.8,105.9,2.8z M101.7,7.2c0.7-1.7,2.3-2.9,4.2-2.9c1.9,0,3.6,1.1,4.3,2.8l0.4,0.9l0.8-0.6
			c0.5-0.4,1.1-0.6,1.7-0.6c1.6,0,3,1.3,3,2.9c0,1.6-1.1,2.8-2.7,3l-0.1,0l-0.1,0c-1.1,0.4-7.1,2.1-14.5,0.3l0,0L98.7,13
			c-1.5-0.2-2.6-1.4-2.6-2.9l0,0c0-0.8,0.3-1.5,0.8-2.1c0.6-0.6,1.3-0.9,2.1-0.9c0.6,0,1.2,0.2,1.7,0.5l0.8,0.5L101.7,7.2z"/>
		<path class="st1" d="M44.8,36.4l10.9-11.6c-1.6-4.4-6.3-6.9-10.9-5.7c-5,1.2-8,6.3-6.7,11.3c0.3,1.2,0.8,2.3,1.5,3.2L44.8,36.4z"
			/>
		<path d="M44.6,18.3c-5.4,1.4-8.8,6.9-7.4,12.4c0.3,1.3,0.9,2.5,1.7,3.5l0.1,0.2l6,3.2l11.8-12.5l-0.2-0.5
			C54.8,19.7,49.6,17,44.6,18.3z M39,30.2c-0.1-0.3-0.1-0.5-0.2-0.8c-0.7-4.2,2-8.3,6.2-9.4c4-1,8,1,9.6,4.7
			c-0.7,0.8-9.2,9.7-10.1,10.6c-0.9-0.5-4-2.2-4.4-2.4C39.7,32.1,39.2,31.2,39,30.2z"/>
		<polygon class="st0" points="102.7,23.7 132.5,61 157.9,61 122.5,31.4 119.9,33.7 		"/>
		<polygon class="st0" points="34,47.7 34.7,30 41.3,34.5 		"/>
		<polygon class="st0" points="61,43.8 61.3,21 69.2,27.5 		"/>
		<polygon class="st0" points="90,41.3 90.3,11.6 99.3,21.8 		"/>
		<polygon class="st2" points="6.6,62.7 93.4,62.7 9.6,59.1 		"/>
		<path class="st2" d="M68.6,57.7L67.5,57l-0.9-1.2l0.8,0.3l-0.4-1c1.1,0.5,2.3,0.6,2.3,0.6l-1.1-0.7L67.7,54l0.5-0.3l-0.6-1
			l0.1-0.5l0.7,0.4l0.6,0.4l0.1-0.7l-1.1-1L68,51l1.6,0l-1-0.8c0,0,1,0.3,1-0.3c0-0.3,0-0.4,0-0.4L69,49h0.5L69,48.1l1.1,0.3
			l-0.5-1.6l-0.4-0.2l0.2-0.9l0.8,0.5l0.1-0.6v-0.4l0.5,0.3v-2.4l0.5,1.1l-0.1,1.3l0.6-0.3v0.4l0.1,0.6l0.8-0.5l0.2,0.9l-0.3,0.2
			l-0.5,1.6l1.1-0.3L72.5,49h0.5l-0.5,0.5c0,0,0,0.1,0,0.4c0,0.6,1,0.3,1,0.3l-1,0.8l1.6,0l-0.1,0.5l-1.1,1l0.1,0.7l0.6-0.4l0.7-0.4
			l0.2,0.5l-0.6,1l0.5,0.3l-0.5,1.1l-1.1,0.7c0,0,1.3-0.1,2.3-0.6l-0.4,1l0.8-0.3L74.4,57l-1.1,0.7l0.6,0.3l1.2-0.7L75,58l-0.7,0.8
			l0.6,0l-0.6,1.5l-1.7,0.1l-1.5-0.2l0,1.9l-0.5,0.1l0-2l-1.3,0.2l-1.7-0.1l-0.6-1.5l0.6,0L67,58l-0.1-0.7L68,58L68.6,57.7z"/>
		<path class="st2" d="M49.3,54.3l-1.6-0.9l-1.3-1.7l1.1,0.4l-0.6-1.4c1.5,0.7,3.4,0.9,3.4,0.9l-1.6-1L47.9,49l0.7-0.4l-0.8-1.4
			l0.2-0.7l0.9,0.6l0.9,0.6l0.1-0.9l-1.5-1.5l-0.1-0.7l2.3-0.1l-1.5-1.1c0,0,1.4,0.4,1.4-0.4c0-0.4,0-0.5,0-0.5l-0.8-0.8h0.7
			l-0.7-1.3l1.5,0.4l-0.7-2.3l-0.5-0.2l0.3-1.2l1.1,0.7l0.1-0.9v-0.6l0.8,0.4v-3.5l0.7,1.5l-0.2,2l0.8-0.5v0.6l0.1,0.9l1.1-0.7
			l0.3,1.2l-0.5,0.2l-0.7,2.3l1.5-0.4l-0.7,1.3h0.7l-0.8,0.8c0,0,0,0.2,0,0.5c0,0.8,1.4,0.4,1.4,0.4l-1.5,1.1l2.3,0.1l-0.1,0.7
			l-1.5,1.5l0.1,0.9l0.9-0.6l0.9-0.6l0.2,0.7l-0.8,1.4l0.7,0.4l-0.7,1.5l-1.6,1c0,0,1.8-0.1,3.4-0.9l-0.6,1.4l1.1-0.4l-1.3,1.7
			L56,54.3l0.9,0.4l1.7-0.9l-0.1,1l-1,1.1l0.9-0.1L57.5,58L55,58l-2.2-0.3l0,3.9l-0.8,0.1l0-4L50.3,58L47.8,58L47,55.8l0.9,0.1
			l-1-1.1l-0.1-1l1.7,0.9L49.3,54.3z"/>
		<path class="st2" d="M40.1,56.7L39,56.1L38.1,55l0.7,0.3l-0.4-0.9c1,0.5,2.2,0.6,2.2,0.6l-1.1-0.7l-0.4-1l0.4-0.2l-0.5-0.9
			l0.1-0.5l0.6,0.4l0.6,0.4l0.1-0.6l-1-1l-0.1-0.5l1.5,0l-1-0.7c0,0,0.9,0.2,0.9-0.3c0-0.3,0-0.3,0-0.4l-0.5-0.5h0.4l-0.4-0.9l1,0.3
			L41,46.2l-0.3-0.1l0.2-0.8l0.7,0.4l0-0.6v-0.4l0.5,0.3v-2.3l0.4,1L42.5,45l0.6-0.3v0.4l0,0.6l0.7-0.4l0.2,0.8l-0.3,0.1l-0.5,1.5
			l1-0.3l-0.4,0.9h0.4l-0.5,0.5c0,0,0,0.1,0,0.4c0,0.5,0.9,0.3,0.9,0.3l-1,0.7l1.5,0l-0.1,0.5l-1,1l0.1,0.6l0.6-0.4l0.6-0.4l0.1,0.5
			L45,53l0.4,0.2l-0.4,1l-1.1,0.7c0,0,1.2-0.1,2.2-0.6l-0.4,0.9l0.7-0.3l-0.9,1.1l-1.1,0.6l0.6,0.3l1.1-0.6l-0.1,0.7l-0.7,0.7l0.6,0
			l-0.5,1.4l-1.6,0L42.4,59l0,1.9L41.9,61l0-1.9l-1.2,0.1l-1.6,0l-0.5-1.4l0.6,0l-0.7-0.7l-0.1-0.7l1.1,0.6L40.1,56.7z"/>
		<path d="M162.6,62.4l-38.4-34.8l-4.5,3l-14.4-12.3l-3.6,3l-12-11.4L72.6,28.5L60,18.6L44.4,35.1l-11.1-6.9l-30,34.5h3.3l3-3.6l0,0
			l0.8-0.9l1-1.2l0,0l21.3-24.9V51l26.7-28.2v24.9l29.4-34.5v31.5c0,0,12.3-12.3,8.1,5.7c0,0,7.8-11.7,12-8.7
			c4.2,3-0.3,17.7-2.4,20.7H162.6z M35.3,44.8L35.7,32l3,2.4L35.3,44.8z M61.9,41.2l0.2-18l4.6,3.8L61.9,41.2z M90.7,39V15.4
			l4.6,4.4L90.7,39z M149.7,59.2h-5.3L121.3,34L149.7,59.2z M105.7,25l32.1,34.2h-4.3L105.7,25z"/>
	</g>
	<polygon class="st0" points="166.4,65.9 31,67.7 171.7,70.7 	"/>
</g>
</svg>
